#!OML:ASF H:\Male1\Project 1\Capture day 1\Session 1\Male1.ASF
:FULLY-SPECIFIED
:DEGREES
441
root 16.5118 15.5206 -0.824519 -3.44344 -93.9427 2.80323
lowerback 8.48348 3.29622 -2.48537
upperback 2.98046 4.01825 -1.86347
thorax -1.69674 1.95385 -0.923345
lowerneck -13.1218 -1.39498 4.58501
upperneck 1.84828 -2.8602 3.04518
head 2.8753 -1.29224 0.00233634
rclavicle 4.29375e-014 3.18055e-015
rhumerus 39.7608 8.04412 -33.2051
rradius 88.6647
rwrist 0.331938
rhand -33.882 21.9647
rfingers 7.12502
rthumb -7.06565 -7.89734
lclavicle 4.29375e-014 3.18055e-015
lhumerus -40.0874 -12.2545 81.5559
lradius 38.1269
lwrist 3.00237
lhand -20.0342 4.43883
lfingers 7.12502
lthumb 6.30684 34.3249
rfemur -2.83935 12.4202 20.3789
rtibia 20.418
rfoot -29.3012 -30.1065
rtoes -18.1338
lfemur -1.64327 -18.4882 -20.195
ltibia 20.5689
lfoot -23.8897 29.354
ltoes -2.1209
442
root 16.5206 15.5184 -0.847401 -3.83797 -94.3321 3.13806
lowerback 8.74497 3.23752 -2.12557
upperback 3.00368 3.95843 -1.8681
thorax -1.79217 1.92449 -1.13657
lowerneck -13.1051 -1.29974 4.88073
upperneck 1.93047 -2.76858 2.8252
head 2.89415 -1.24985 -0.115639
rclavicle 9.74045e-015 -2.38542e-015
rhumerus 42.9849 6.72336 -33.5284
rradius 88.0444
rwrist 0.310342
rhand -33.0612 22.159
rfingers 7.12502
rthumb -6.27333 -7.72816
lclavicle 9.74045e-015 -2.38542e-015
lhumerus -40.0916 -12.3134 81.4553
lradius 38.0456
lwrist 3.0209
lhand -19.2296 7.47196
lfingers 7.12502
lthumb 7.08354 37.3334
rfemur -2.92709 12.5314 20.4772
rtibia 20.5353
rfoot -29.0919 -29.7431
rtoes -17.9631
lfemur -1.48116 -18.2023 -20.0813
ltibia 20.4786
lfoot -24.0708 29.4076
ltoes -1.8374
443
root 16.5233 15.5214 -0.872375 -3.00672 -94.6304 2.4745
lowerback 8.75961 3.14988 -1.97179
upperback 2.93663 3.85801 -1.81521
thorax -1.8635 1.87659 -1.1605
lowerneck -12.8578 -1.05727 5.03993
upperneck 1.74888 -2.43316 2.58828
head 2.78389 -1.09862 -0.195562
rclavicle 1.5207e-014 3.97569e-015
rhumerus 46.0284 5.23779 -33.8459
rradius 87.047
rwrist 0.32659
rhand -34.6382 22.5008
rfingers 7.12502
rthumb -7.79555 -7.33551
lclavicle 1.5207e-014 3.97569e-015
lhumerus -40.1296 -12.1354 81.3671
lradius 38.109
lwrist 3.05698
lhand -20.419 4.38478
lfingers 7.12502
lthumb 5.93531 34.2816
rfemur -3.20373 12.43 20.4278
rtibia 20.566
rfoot -28.728 -29.3524
rtoes -18.0591
lfemur -1.62882 -17.8708 -19.952
ltibia 20.4919
lfoot -24.3041 29.3115
ltoes -1.35159
444
root 16.5271 15.5211 -0.896378 -3.12756 -94.6287 2.56838
lowerback 8.92785 3.00653 -1.74303
upperback 2.99971 3.68471 -1.71884
thorax -1.88377 1.78991 -1.17786
lowerneck -12.6149 -1.00437 5.17497
upperneck 1.58906 -2.34588 2.34543
head 2.68015 -1.06967 -0.288939
rclavicle -6.69904e-014 4.21423e-014
rhumerus 48.8393 3.24905 -34.3968
rradius 85.7073
rwrist -0.169252
rhand -35.8946 23.8944
rfingers 7.12502
rthumb -9.00805 -5.89331
lclavicle -6.69904e-014 4.21423e-014
lhumerus -40.0627 -11.8399 81.2429
lradius 38.4853
lwrist 3.02247
lhand -21.0898 3.00037
lfingers 7.12502
lthumb 5.28764 32.9144
rfemur -3.18732 12.1171 20.4655
rtibia 20.5323
rfoot -28.3447 -29.0683
rtoes -18.1098
lfemur -1.63088 -17.7869 -19.8548
ltibia 20.5712
lfoot -24.4482 29.2277
ltoes -1.11198
445
root 16.531 15.5209 -0.922604 -4.34277 -94.4971 3.77887
lowerback 9.019 2.85855 -1.46344
upperback 3.11815 3.51358 -1.59859
thorax -1.80343 1.70397 -1.19268
lowerneck -12.4748 -0.980947 5.25978
upperneck 1.39527 -2.29604 2.08194
head 2.58456 -1.06063 -0.383221
rclavicle 4.74101e-014 -3.65764e-014
rhumerus 51.3154 0.938366 -35.0271
rradius 83.9802
rwrist -0.782388
rhand -36.286 22.7617
rfingers 7.12502
rthumb -9.38576 -7.00938
lclavicle 4.74101e-014 -3.65764e-014
lhumerus -39.8068 -11.6825 81.1903
lradius 38.8535
lwrist 3.45006
lhand -19.8776 7.15673
lfingers 7.12502
lthumb 6.45801 37.0383
rfemur -3.15675 11.9213 20.6309
rtibia 20.4764
rfoot -28.185 -28.9406
rtoes -17.83
lfemur -1.68571 -17.6985 -19.6191
ltibia 20.6354
lfoot -24.394 29.0895
ltoes -1.33035
